<?xml version="1.0" ?>
<!-- Uploaded to: SVG Repo, www.svgrepo.com, Generator: SVG Repo Mixer Tools -->
<svg width="800px" height="800px" viewBox="0 0 64 64" xmlns="http://www.w3.org/2000/svg">
<defs>
<style>.cls-1{fill:#414042;}.cls-2{fill:#231f20;}.cls-3{fill:#fff200;}.cls-4{fill:#ffbe00;}</style>
</defs>
<title/>
<g id="hot-deal">
<path class="cls-1" d="M58,35c0,14.82-11.18,26-26,26C16.45,61,6,50.55,6,35A53,53,0,0,1,8.08,19.45,2,2,0,0,1,10,18h0a2,2,0,0,1,1.9,1.37C12,19.6,12.65,21,15,21c4.84,0,5-9.9,5-10a2,2,0,0,1,2.89-1.79A9,9,0,0,0,27,10c2.44,0,4.06-2.39,5-4.46a18.58,18.58,0,0,0,1-3A2,2,0,0,1,35,1h0A2,2,0,0,1,37,2.67C37.68,6.91,40.86,19,46,19c4.12,0,5-3.9,5-4.34A2,2,0,0,1,52.82,13a2,2,0,0,1,2,1.28C58,22.64,58,31.94,58,35Z"/>
<path class="cls-2" d="M58,35c0,14.82-11.18,26-26,26V5.54a18.58,18.58,0,0,0,1-3A2,2,0,0,1,35,1h0A2,2,0,0,1,37,2.67C37.68,6.91,40.86,19,46,19c4.12,0,5-3.9,5-4.34A2,2,0,0,1,52.82,13a2,2,0,0,1,2,1.28C58,22.64,58,31.94,58,35Z"/>
<path class="cls-3" d="M42.41,30.41,32,40.82l-8.59,8.59a2,2,0,0,1-2.82-2.82L32,35.18l7.59-7.59a2,2,0,0,1,2.82,2.82Z"/>
<path class="cls-3" d="M24.5,37A5.5,5.5,0,1,0,19,31.5,5.51,5.51,0,0,0,24.5,37Zm0-7A1.5,1.5,0,1,1,23,31.5,1.5,1.5,0,0,1,24.5,30Z"/>
<path class="cls-3" d="M38.5,40A5.5,5.5,0,1,0,44,45.5,5.51,5.51,0,0,0,38.5,40Zm0,7A1.5,1.5,0,1,1,40,45.5,1.5,1.5,0,0,1,38.5,47Z"/>
<path class="cls-4" d="M42.41,27.59a2,2,0,0,0-2.82,0L32,35.18v5.64L42.41,30.41A2,2,0,0,0,42.41,27.59Z"/>
<path class="cls-4" d="M38.5,40A5.5,5.5,0,1,0,44,45.5,5.51,5.51,0,0,0,38.5,40Zm0,7A1.5,1.5,0,1,1,40,45.5,1.5,1.5,0,0,1,38.5,47Z"/>
</g>
</svg>