<?xml version="1.0" encoding="utf-8"?>

<!-- Uploaded to: SVG Repo, www.svgrepo.com, Generator: SVG Repo Mixer Tools -->
<svg fill="#000000" height="800px" width="800px" version="1.1" id="Icons" xmlns="http://www.w3.org/2000/svg" xmlns:xlink="http://www.w3.org/1999/xlink" 
	 viewBox="0 0 32 32" xml:space="preserve">
<path d="M31.9,27.3C31.3,30,28.8,32,26,32c0,0,0,0,0,0c-3.1,0-5.8-2.6-5.9-5.5c-0.1-2,0.5-3.8,1.8-5.4l0.3-0.3c0.8-1,1.5-1.9,1.9-3
	c0.1-0.2,0.3-0.4,0.4-0.5c0.4-0.3,1-0.2,1.3,0.1c1.1,1.2,1.7,2.3,1.9,3.6c0.2,0.9,0.2,1.9,0.3,2.8l0,0.5c0.7-0.1,1.2-0.4,1.5-1
	l0.2-0.3c0.2-0.3,0.5-0.5,0.9-0.5c0.4,0,0.7,0.2,0.9,0.6C32,24.2,32.2,25.9,31.9,27.3z"/>
<path d="M18,26c0-0.7,0.1-1.3,0.2-2H7.6C7.3,24,7,23.7,7,23.4c0-0.3,0.2-0.6,0.5-0.6l12-1.9c0.2-0.3,0.4-0.7,0.7-1l0.3-0.3
	c0.7-0.9,1.3-1.7,1.6-2.5c0.2-0.6,0.7-1.2,1.2-1.5c1.1-0.7,2.4-0.6,3.4,0.1L28,8.2c0.1-0.5-0.3-1.1-0.8-1.2
	c-0.5-0.1-1.1,0.3-1.2,0.8L25.8,9H6.6l0-0.1c0.6-1.3,0.6-2.8-0.2-4C5.7,3.7,4.4,3,3,3H1C0.4,3,0,3.4,0,4s0.4,1,1,1h2
	c0.7,0,1.4,0.4,1.8,1c0.4,0.6,0.4,1.4,0.1,2L4.1,9.6c0,0,0,0,0,0c0,0.1,0,0.1-0.1,0.2C4,9.8,4,9.9,4,10c0,0,0,0,0,0
	c0,0.1,0,0.1,0,0.2c0,0.1,0,0.1,0,0.2l3.8,10.3l-0.6,0.1C5.9,21,5,22.1,5,23.4c0,1,0.5,1.8,1.3,2.3C6.1,26.1,6,26.5,6,27
	c0,1.7,1.3,3,3,3s3-1.3,3-3c0-0.4-0.1-0.7-0.2-1H18z M9,28c-0.6,0-1-0.4-1-1s0.4-1,1-1s1,0.4,1,1S9.6,28,9,28z"/>
</svg>